<svg width="59" height="58" viewBox="0 0 59 58" fill="none" xmlns="http://www.w3.org/2000/svg">
<path d="M42.5406 0H15.7894C7.08298 0 0 6.97549 0 15.5498V41.8955C0 50.4693 7.08298 57.4448 15.7894 57.4448H42.5411C51.247 57.4448 58.33 50.4693 58.33 41.8955V15.5498C58.33 6.97549 51.247 0 42.5406 0V0ZM54.9105 41.8955C54.9105 48.6124 49.3615 54.0772 42.5406 54.0772H15.7894C8.96854 54.0772 3.41955 48.6124 3.41955 41.8955V15.5498C3.41955 8.83244 8.96854 3.36766 15.7894 3.36766H42.5411C49.3615 3.36766 54.9105 8.83244 54.9105 15.5498V41.8955Z" fill="white"/>
<path d="M29.165 13.8706C20.3705 13.8706 13.2159 20.9166 13.2159 29.5776C13.2159 38.2387 20.3705 45.2847 29.165 45.2847C37.9596 45.2847 45.1142 38.2387 45.1142 29.5776C45.1142 20.9166 37.9596 13.8706 29.165 13.8706ZM29.165 41.917C22.2565 41.917 16.6354 36.3817 16.6354 29.5776C16.6354 22.774 22.2565 17.2382 29.165 17.2382C36.074 17.2382 41.6946 22.774 41.6946 29.5776C41.6946 36.3817 36.074 41.917 29.165 41.917Z" fill="white"/>
<path d="M45.4955 8.29248C42.8966 8.29248 40.7828 10.3746 40.7828 12.9336C40.7828 15.493 42.8966 17.5752 45.4955 17.5752C48.0945 17.5752 50.2087 15.493 50.2087 12.9336C50.2087 10.3742 48.0945 8.29248 45.4955 8.29248ZM45.4955 14.2072C44.7826 14.2072 44.2023 13.6357 44.2023 12.9336C44.2023 12.2311 44.7826 11.66 45.4955 11.66C46.2089 11.66 46.7892 12.2311 46.7892 12.9336C46.7892 13.6357 46.2089 14.2072 45.4955 14.2072Z" fill="white"/>
</svg>
