<svg width="35" height="58" viewBox="0 0 35 58" fill="none" xmlns="http://www.w3.org/2000/svg">
<path d="M29.2787 10.2687H35V0.00624615H24.6029C23.7355 -0.0292108 13.1627 -0.227769 10.4224 10.0394C10.3827 10.1469 9.50696 12.5888 9.50696 18.2926L0 18.321V29.0845L9.51899 29.0573V57.4478H24.0591V29.0822H33.6828V18.2902H24.0591V14.8946C24.0591 12.7838 24.9649 10.2687 29.2787 10.2687ZM31.2769 20.6529V26.7172H21.6532V55.0828H11.9249V26.6864L2.40591 26.7136V20.6777L11.9502 20.6505L11.9249 19.4485C11.7998 13.4066 12.6768 10.8655 12.7164 10.7438C15.0815 1.90083 24.1121 2.34523 24.4994 2.36886L32.5941 2.37123V7.90606H29.2787C23.6573 7.90606 21.6544 11.5156 21.6544 14.8935V20.6529H31.2769Z" fill="white"/>
</svg>
