<svg width="76" height="58" viewBox="0 0 76 58" fill="none" xmlns="http://www.w3.org/2000/svg">
<path d="M75.091 6.7122C74.5839 6.3972 73.9119 6.41426 73.422 6.75289C72.7787 7.19914 71.7328 7.55352 70.6067 7.82652C73.5394 4.81562 73.6025 2.80484 73.571 2.34284C73.538 1.86508 73.2242 1.44114 72.7515 1.2377C72.2772 1.03295 71.7213 1.08282 71.2987 1.3637C67.9992 3.56085 64.7126 4.02417 62.7584 4.07142C59.7583 1.44114 55.8628 0 51.7166 0C42.8396 0 35.6189 6.70433 35.6189 14.9443C35.6189 15.653 35.6733 16.3605 35.7808 17.0614C20.3965 16.9026 7.90339 3.3981 7.77444 3.25766C7.47358 2.92953 7.01798 2.75366 6.55092 2.79172C6.08386 2.82847 5.66695 3.07128 5.43342 3.44404C1.00639 10.4791 3.96921 16.6584 6.677 20.197C6.19848 19.9633 5.81022 19.7323 5.57812 19.5762C5.14831 19.2822 4.5738 19.2336 4.08955 19.4515C3.60673 19.6693 3.29871 20.1156 3.28868 20.6078C3.16976 27.3121 6.69133 31.1525 10.0037 33.2762C9.56245 33.2381 9.11401 33.3877 8.80742 33.6936C8.46357 34.0361 8.34179 34.5204 8.49079 34.9654C10.7788 41.8259 16.3964 44.1569 19.971 44.9484C12.6213 50.1906 1.8044 48.5027 1.68549 48.4843C1.03218 48.378 0.387469 48.693 0.120988 49.2482C-0.14406 49.8021 0.0364591 50.4517 0.563691 50.8193C8.32173 56.2439 17.6013 57.4448 24.3034 57.4448C29.3738 57.4448 32.9713 56.7571 33.3151 56.6875C67.2671 49.3164 68.2227 20.8257 68.1439 16.1571C74.518 10.7272 75.5137 8.65866 75.667 8.14678C75.8317 7.60471 75.5996 7.0272 75.091 6.7122ZM65.7241 14.6332C65.4046 14.9023 65.237 15.2895 65.2656 15.6872C65.3559 16.9472 67.0923 46.6586 32.6833 54.1281C32.5271 54.1583 18.8492 56.7728 6.99219 51.3915C12.0023 51.2642 19.1859 50.0619 24.1903 44.9142C24.5685 44.5271 24.6602 43.9705 24.4252 43.498C24.1931 43.0295 23.6817 42.7289 23.1215 42.7289C23.1172 42.7289 23.1114 42.7289 23.1071 42.7289C23.0355 42.7709 15.5124 42.721 12.0682 36.165C13.4551 36.2372 15.1657 36.1585 16.5282 35.5836C17.0898 35.346 17.4208 34.8066 17.352 34.2435C17.2832 33.6817 16.8276 33.2237 16.223 33.1069C15.8377 33.0321 7.46212 31.3166 6.29017 22.9467C7.56097 23.4559 9.18708 23.872 10.7946 23.6476C11.3476 23.5714 11.8003 23.2079 11.9565 22.7157C12.1126 22.2235 11.9422 21.6932 11.5195 21.3572C11.1613 21.0711 3.29584 14.6673 7.02514 6.4077C11.0739 10.2993 23.0656 20.4122 37.5946 19.6483C38.0201 19.626 38.4141 19.4292 38.6676 19.1141C38.9198 18.7991 39.0058 18.3975 38.9026 18.0182C38.6275 17.0141 38.4871 15.9799 38.4871 14.9456C38.4871 8.15203 44.4242 2.62634 51.7209 2.62634C55.2898 2.62634 58.638 3.93098 61.1466 6.30138C61.4102 6.55076 61.7727 6.69382 62.1509 6.70039C63.6696 6.72008 66.1654 6.55601 68.9849 5.52044C68.1711 6.44838 66.9763 7.56008 65.2183 8.82535C64.7212 9.18366 64.5392 9.79661 64.7699 10.3361C65.0006 10.8768 65.5966 11.2167 66.2184 11.1656C66.5522 11.1406 68.2542 11.0041 70.1783 10.6222C69.1267 11.6564 67.6897 12.9768 65.7241 14.6332Z" fill="white"/>
</svg>
