<svg width="492" height="198" viewBox="0 0 492 198" fill="none" xmlns="http://www.w3.org/2000/svg">
<path d="M33.3813 2.25048V101.904H25.5666V2.25048H0V1H59.4303V2.25048H33.3813V2.25048ZM126 1V102H118.185V52.1733H63.7718V101.904H55.9571V19.5648H63.7718V50.7305H118.185V1H126Z" fill="white"/>
<path d="M193 100.556V102H151V1H190.284V2.25167H159.051V50.5853H187.374V52.0296H159.051V100.556H193Z" fill="white"/>
<path d="M345 51.5C345 79.8972 325.143 103 292.597 103C259.954 103 240 79.8972 240 51.5C240 22.9103 259.857 0 292.597 0C325.143 0 345 22.9103 345 51.5ZM335.895 51.5C335.895 23.4878 319.137 0.962617 292.597 0.962617C265.863 0.962617 249.202 23.4878 249.202 51.5C249.202 79.3196 265.863 102.037 292.597 102.037C319.137 102.037 335.895 79.4159 335.895 51.5Z" fill="white"/>
<path d="M398 100.556V102H362V1H369.755V100.652H398V100.556Z" fill="white"/>
<path d="M492 51.4519C492 78.9886 475.659 102 432.726 102C430.985 102 413 102 413 102V1C413 1 430.985 1 432.726 1C475.659 1 492 23.9152 492 51.4519ZM483.201 51.4519C483.201 26.0334 467.149 2.25167 432.726 2.25167C430.502 2.25167 425.667 2.25167 420.832 2.25167V100.556C425.57 100.556 430.502 100.556 432.726 100.556C467.053 100.556 483.201 76.8704 483.201 51.4519Z" fill="white"/>
<path d="M109 197H106.311L100.934 169.374L93.7318 197H93.4437L85.7616 170.317L80.4801 197H80L86.6258 164L94.7881 191.437L102.182 164L109 197Z" fill="white"/>
<path d="M143 196.529V197H129V164H142.034V164.377H131.607V180.217H141.069V180.689H131.607V196.529H143V196.529Z" fill="white"/>
<path d="M181 197H180.506L166.669 169.374V197H164V164H164.395L178.233 191.531V164H180.901V197H181Z" fill="white"/>
<path d="M203.171 164C203.171 164 202.958 163.902 202.852 163.707C204.129 162.826 204.448 161.554 204.448 161.554C204.129 161.75 203.81 161.848 203.384 161.848C202.532 161.75 202 161.065 202 160.282C202.106 159.5 202.852 158.913 203.703 159.011C204.768 159.108 205.087 160.087 204.981 160.772C204.768 162.826 203.171 164 203.171 164Z" fill="white"/>
<path d="M232.968 190.687C232.657 195.721 229.139 198 225 198V197.62C227.587 197.62 229.967 195.056 230.174 191.447C230.484 184.799 224.483 178.911 225.517 170.648C226.035 165.804 229.139 164 232.761 164V164.38C230.174 164.38 228.622 167.039 228.311 170.078C227.587 178.151 233.485 183.374 232.968 190.687Z" fill="white"/>
<path d="M280.097 181C280.097 190.212 285.71 197.62 294.516 197.62C297.903 197.62 301.194 196.86 304 195.151V195.626C301.387 197.05 298.194 198 294.516 198C283.677 198 277 190.402 277 181C277 171.598 283.677 164 294.516 164C298.194 164 301.387 164.855 304 166.374V166.754C301.194 165.045 297.903 164.38 294.516 164.38C285.71 164.38 280.097 171.788 280.097 181Z" fill="white"/>
<path d="M337 196.529V197H325V164H327.571V196.529H337Z" fill="white"/>
<path d="M379 164V186.955C379 194.542 373.545 198 368.091 198C362.537 198 355 195.407 355 186.955V164H357.678V187.723C357.678 194.446 363.628 197.616 368.091 197.616C373.545 197.616 378.603 193.678 378.603 187.243V164H379Z" fill="white"/>
<path d="M413 191.977C413 195.474 410.527 198 404.481 198C404.114 198 401 198 401 198V164C401 164 404.023 164 404.298 164C410.344 164 412.817 169.634 412.817 175.269C412.817 180.126 410.985 184.983 406.679 186.246C411.076 186.731 413 188.966 413 191.977ZM403.473 164.389V186.051C403.656 186.051 403.748 186.051 403.84 186.051C407.962 186.051 410.069 181.194 410.069 175.171C410.069 169.149 408.053 164.291 403.84 164.291C403.748 164.389 403.656 164.389 403.473 164.389ZM410.252 191.977C410.252 189.451 408.878 186.537 404.756 186.537C404.298 186.537 403.84 186.537 403.473 186.537V197.514C403.84 197.514 404.298 197.514 404.756 197.514C408.878 197.417 410.252 194.503 410.252 191.977Z" fill="white"/>
</svg>
